<?xml version="1.0" standalone="no"?>
<!DOCTYPE svg PUBLIC "-//W3C//DTD SVG 20010904//EN"
 "http://www.w3.org/TR/2001/REC-SVG-20010904/DTD/svg10.dtd">
<svg version="1.0" xmlns="http://www.w3.org/2000/svg"
 width="200px" height="200px" viewBox="125 15 360 400"
 preserveAspectRatio="xMidYMid meet">

<g transform="translate(0, 530) scale(0.100000,-0.100000)"
fill="#000000" stroke="none">
<path d="M1465 4971 c-82 -21 -162 -87 -206 -171 l-24 -45 -3 -1555 c-2 -1360
0 -1560 13 -1606 19 -65 89 -145 159 -182 l51 -27 1545 0 1545 0 46 23 c59 29
122 92 151 150 l23 47 0 1575 0 1575 -27 50 c-32 60 -87 114 -148 146 l-45 24
-1525 2 c-839 0 -1538 -2 -1555 -6z m920 -1791 l0 -1685 -440 0 c-242 0 -452
3 -467 8 -35 9 -94 61 -116 101 -16 29 -17 141 -17 1576 0 1455 1 1547 18
1577 22 41 77 85 121 98 21 6 209 10 468 10 l433 0 0 -1685z m1170 0 l-1
-1685 -527 -3 -527 -2 0 1683 c0 926 2 1686 4 1688 2 2 240 4 528 4 l523 0 0
-1685z m979 1671 c13 -6 40 -24 60 -41 70 -62 67 37 64 -1656 -3 -1657 1
-1535 -61 -1602 -56 -59 -84 -62 -529 -62 l-398 0 0 1685 0 1684 93 4 c155 7
745 -3 771 -12z"/>
<path d="M1540 4500 c-20 -20 -20 -33 -20 -1275 l0 -1256 25 -24 24 -25 306 0
306 0 25 25 24 24 -2 1261 c-3 1236 -3 1262 -22 1276 -16 11 -78 14 -333 14
-300 0 -314 -1 -333 -20z m570 -210 l0 -120 -235 0 -235 0 0 115 0 115 223 3
c122 1 228 3 235 5 9 1 12 -27 12 -118z m0 -355 l0 -125 -235 0 -235 0 0 125
0 125 235 0 235 0 0 -125z m0 -360 l0 -125 -235 0 -235 0 0 125 0 125 235 0
235 0 0 -125z m0 -370 l0 -125 -235 0 -235 0 0 125 0 125 235 0 235 0 0 -125z
m0 -340 l0 -95 -235 0 -235 0 0 95 0 95 235 0 235 0 0 -95z m0 -330 l0 -125
-235 0 -235 0 0 125 0 125 235 0 235 0 0 -125z m0 -370 l0 -125 -235 0 -235 0
0 125 0 125 235 0 235 0 0 -125z"/>
<path d="M2735 3813 c-16 -3 -36 -9 -42 -15 -10 -8 -13 -136 -13 -579 0 -552
1 -569 19 -579 12 -6 136 -10 334 -10 291 0 315 1 330 18 15 17 17 71 17 573
0 464 -2 558 -14 575 -14 18 -30 19 -308 20 -161 1 -306 -1 -323 -3z m525
-228 l0 -115 -235 0 -235 0 0 115 0 115 235 0 235 0 0 -115z m2 -355 l-3 -120
-235 0 -234 0 0 120 0 120 238 0 237 0 -3 -120z m-74 -240 l72 0 0 -125 0
-125 -235 0 -235 0 0 123 c0 68 3 127 8 132 4 4 77 5 162 1 85 -3 188 -6 228
-6z"/>
<path d="M3836 4134 c-14 -14 -16 -110 -16 -913 0 -857 1 -899 18 -914 16 -15
54 -17 328 -17 264 0 313 2 332 16 l22 15 0 898 c0 857 -1 899 -18 914 -16 15
-55 17 -335 17 -274 0 -318 -2 -331 -16z m569 -214 l0 -115 -235 0 -235 0 -3
118 -3 117 238 -2 238 -3 0 -115z m3 -352 l3 -118 -241 0 -240 0 0 120 0 120
238 -2 237 -3 3 -117z m2 -363 l0 -125 -240 0 -240 0 0 125 0 125 240 0 240 0
0 -125z m0 -370 l0 -125 -240 0 -240 0 0 125 0 125 240 0 240 0 0 -125z m-3
-332 l1 -93 -239 0 -239 0 0 95 0 95 238 -2 237 -3 2 -92z"/>
</g>
</svg>
